<?xml version="1.0" encoding="UTF-8"?>
<svg id="BLTC" xmlns="http://www.w3.org/2000/svg" xmlns:xlink="http://www.w3.org/1999/xlink" viewBox="0 0 195.05 172.81">
  <defs>
    <style>
      .cls-1 {
        fill: #fff;
      }

      .cls-2 {
        fill: #fcc9a5;
      }

      .cls-2, .cls-3, .cls-4, .cls-5, .cls-6, .cls-7, .cls-8, .cls-9 {
        stroke: #231f20;
        stroke-width: .25px;
      }

      .cls-2, .cls-5, .cls-7, .cls-8 {
        stroke-miterlimit: 10;
      }

      .cls-3 {
        fill: url(#linear-gradient);
      }

      .cls-3, .cls-4, .cls-6, .cls-9 {
        stroke-linecap: round;
        stroke-linejoin: round;
      }

      .cls-10 {
        fill: #a93d30;
      }

      .cls-4, .cls-5 {
        fill: #92b952;
      }

      .cls-11 {
        fill: #d4998b;
      }

      .cls-6, .cls-7 {
        fill: none;
      }

      .cls-12 {
        fill: #ce464c;
      }

      .cls-13 {
        fill: #f15a29;
      }

      .cls-8 {
        fill: #df8a44;
      }

      .cls-9 {
        fill: #a97c51;
      }
    </style>
    <linearGradient id="linear-gradient" x1="22.94" y1="109.6" x2="22.94" y2="82.62" gradientUnits="userSpaceOnUse">
      <stop offset=".42" stop-color="#92b952"/>
      <stop offset=".53" stop-color="#95b051"/>
      <stop offset=".71" stop-color="#9e9850"/>
      <stop offset=".87" stop-color="#a97c50"/>
    </linearGradient>
  </defs>
  <polygon id="Bread_left" data-name="Bread left" class="cls-2" points="17.82 58.05 .13 49.96 .13 130.19 17.8 141.86 17.82 58.05"/>
  <path id="Bread_bottom" data-name="Bread bottom" class="cls-2" d="M16.74,116.86l72.96,29.19c5.96,2.38,10.04,1.5,16-.89l87.66-33.39v20.16c0,2.03-1.23,3.86-3.11,4.63l-84.22,34.34c-5.96,2.38-12.61,2.38-18.57,0,0,0-11.63-4.83-26.24-10.9L3.21,135.9c-1.87-.78-3.08-2.6-3.08-4.62v-14.42"/>
  <path id="Bread_bottom_top_" data-name="Bread bottom top?" class="cls-9" d="M193.35,111.63l-85.33,36.16c-6.23,2.76-13.32,2.86-19.63.27l-71.49-29.37,173.07-8.24,3.38,1.18Z"/>
  <g id="Lettuce">
    <path id="Bottom" class="cls-4" d="M32.33,108.91c20.89,8.36,54.27,21.71,54.27,21.71,5.96,2.38,12.61,2.38,18.57,0l86.6-36.95s.73,1.51.73,2.21v.46c1.39,2.42,2.39,5.42.41,7.49.02.03.1.13.18.24,1.41,1.89,1.45,3.36,1.12,4.82-.07.32-1,1.31-.99,1.28,0,0-1.32-.32-3.77-.1-.19.02-.31,0-.46.17-2,2.64-4.11,5.52-7.11,7.52-13,8-27,6-40,16-7,6-18,3-26,8-6,3-11,7-18.47,9.01-.17.02-.26.04-.26.04-9.74-.58-16.81-7.46-25.12-11.27s-19.15-1.77-26.15-6.77-12.27-7.83-21.27-9.83c-3,0-7.31-3.36-8.56-5.59-.1-.14-.17-.7-.17-.75,0-.14,0,0,0,0l.86-15.01"/>
    <path id="Bottom_left" data-name="Bottom left" class="cls-5" d="M24.61,122.92c-1.83-.06-4.27-.22-7.25-1.44-4.76-1.94-7.62-5.12-8.93-6.8,1.16.39,2.91.81,5.05.73,1.33-.05,1.97-.65,2.53-1.04.04,0,2.9,1.69,2.9,1.69,0,0-.19-.07-.5-.26"/>
    <path id="Slice_1" data-name="Slice 1" class="cls-4" d="M116.32,137.23c-6,3-11,7-18.47,9.01M116.32,137.23c8-5,19-2,26-8M182.32,113.23c-13,8-27,6-40,16M182.32,113.23c3-2,5.11-4.88,7.11-7.52M192.91,103.83s-1.04.7-2.93,1.48M189.98,105.31c-.18.07-.4.24-.55.39M46.57,128.19c-7-5-13-8-22-10-3,0-11.71-5.3-12.96-7.53,0,0,3.51-2.94,4.44-2.44M46.57,128.19c7,5,18,3,26,7M72.57,135.19c8,5,15,11,25.27,11.04"/>
    <path id="Slice_2" data-name="Slice 2" class="cls-4" d="M116.32,131.54c-6,3-11,7-18.47,9.01M116.32,131.54c8-5,19-2,26-8M182.32,107.54c-13,8-27,6-40,16M182.32,107.54c3-2,5.11-4.88,7.11-7.52M189.98,99.62c1.89-.78,2.94-2.47,2.94-2.47M189.98,99.62c-.18.07-.4.24-.55.39M46.57,122.5c-7-5-13-8-22-10-3,0-12.41-6.58-13.65-8.81l5.82-2.09M46.57,122.5c7,5,18,3,26,7M72.57,129.5c8,5,15,11,25.27,11.04"/>
    <path id="Top_middle" data-name="Top middle" class="cls-4" d="M126.48,123.8c-11.9,4.74-20.46,8.1-20.46,8.1-5.96,2.38-12.61,2.38-18.57,0,0,0,2.48.99-18.42-7.37l57.44-.74Z"/>
    <path id="Top_right" data-name="Top right" class="cls-4" d="M170.02,104.66c.9-.41,1.78-.81,2.65-1.21.59-.27,1.16-.39,1.27-.41,7.6-1,14.28-2,20.01-8.69.09-.11.22-.21.3-.31.24-.29.43-.6.48-1,1-5.98-2.08-12.3-8.28-15.5l-2.08.81-14.35,26.31Z"/>
    <path id="Top_left" data-name="Top left" class="cls-3" d="M33.49,109.6c-2.69-1.05-5.61-1.84-8.91-2.57-3,0-6.59-3.2-7.83-5.42-.22-.32-.55-.71-1.02-1.08-.74-.59-2.86-1.43-3.33-1.56.53-.09,2.25-.41,3.03-.76.3-.13,1.06-.85,1.32-.76v-14.83l3.4,1.36,13.34,25.62Z"/>
  </g>
  <g id="Tomato_full" data-name="Tomato full">
    <g>
      <path class="cls-12" d="M183.78,82.12c1.34,23.17-34.3,44.07-79.6,46.68-45.17,2.6-82.89-13.96-84.43-37.02v-.2s-1.37-18.62-1.37-18.62c1.33,23.17,39.14,39.83,84.44,37.22s80.94-23.51,79.6-46.68l1.36,18.62Z"/>
      <path class="cls-13" d="M182.42,63.5c1.34,23.17-34.3,44.07-79.6,46.68s-83.11-14.05-84.44-37.22c-1.34-23.16,34.3-44.06,79.6-46.67,45.3-2.61,83.11,14.05,84.44,37.21Z"/>
    </g>
    <g>
      <path class="cls-6" d="M183.68,80.66c.06.49.08.97.1,1.46,1.34,23.17-34.3,44.07-79.6,46.68-45.17,2.6-82.89-13.96-84.43-37.02"/>
      <path class="cls-6" d="M182.42,63.5c-1.33-23.16-39.14-39.82-84.44-37.21-45.3,2.61-80.94,23.51-79.6,46.67,1.33,23.17,39.14,39.83,84.44,37.22s80.94-23.51,79.6-46.68Z"/>
      <line class="cls-6" x1="19.74" y1="91.58" x2="18.38" y2="72.96"/>
      <line class="cls-6" x1="183.78" y1="82.12" x2="182.42" y2="63.5"/>
    </g>
  </g>
  <g id="Bacon_right" data-name="Bacon right">
    <g>
      <path class="cls-10" d="M194.71,71.24l-.42,5.38-.34.14c-4.86,2.06-9.35,4.84-13.81,7.36-.58.32-1.15.64-1.72.95-3.7,2.25-7.51,4.19-11.42,5.77-.65.26-1.31.52-1.96.76-8.5,3.61-16.84,3.83-25.6,4.52-.75.07-1.49.18-2.22.34-.73.17-1.45.38-2.15.67-.83.26-1.66.53-2.5.81-.7.23-1.41.47-2.11.74-2.8,1.06-5.55,2.51-8.19,4.63-.68.42-1.35.85-2.02,1.31-1.33.92-2.62,1.93-3.88,3.04-.63.43-1.25.87-1.87,1.35-.62.47-1.19.86-1.79,1.38-.65.36-1.35.81-2,1.16-.43.23-.87.47-1.3.71-8.77,5.43-17.57,7.47-26.84,9.22-.64.11-1.27.22-1.9.31-.69.19-1.37.4-2.02.63l.42-5.39c.65-.22,1.32-.43,2.02-.62.62-.09,1.26-.2,1.89-.31,9.27-1.75,18.07-3.79,26.85-9.23.43-.23.86-.47,1.3-.7.65-.35,1.34-.81,1.99-1.16.61-.52,1.17-.92,1.79-1.39s1.25-.92,1.88-1.34c1.25-1.11,2.55-2.12,3.88-3.04.66-.46,1.34-.9,2.02-1.31,2.64-2.13,5.39-3.57,8.19-4.64.7-.26,1.4-.51,2.11-.73.83-.29,1.66-.56,2.5-.81.7-.29,1.42-.51,2.15-.67.72-.16,1.46-.27,2.21-.34,8.77-.69,17.11-.92,25.6-4.52.66-.25,1.31-.5,1.96-.76,3.91-1.58,7.72-3.52,11.42-5.78.58-.31,1.15-.62,1.72-.95,4.38-2.46,9.41-5.45,14.16-7.49Z"/>
      <path class="cls-10" d="M194.28,71.06l.43.18c-4.75,2.04-9.78,5.03-14.16,7.49-.57.33-1.14.64-1.72.95-3.7,2.26-7.51,4.2-11.42,5.78-.65.26-1.3.51-1.96.76-8.49,3.6-16.83,3.83-25.6,4.52-.75.07-1.49.18-2.21.34-.73.16-1.45.38-2.15.67-.84.25-1.67.52-2.5.81-.71.22-1.41.47-2.11.73-2.8,1.07-5.55,2.51-8.19,4.64-.68.41-1.36.85-2.02,1.31-1.33.92-2.63,1.93-3.88,3.04-.63.42-1.26.87-1.88,1.34s-1.18.87-1.79,1.39c-.65.35-1.34.81-1.99,1.16-.44.23-.87.47-1.3.7-8.78,5.44-17.58,7.48-26.85,9.23-.63.11-1.27.22-1.89.31-.7.19-1.37.4-2.02.62-2.34-1.02-3.84-1.15-6.36-2.69-.16-.1-.33-.21-.49-.32-.39-.26-.77-.55-1.16-.87v-.09c.66-.23,1.33-.43,2.02-.62.63-.1,1.26-.2,1.9-.31,9.27-1.76,18.07-3.79,26.84-9.23.43-.24.87-.47,1.3-.71.65-.35,1.35-.8,2-1.15.6-.53,1.17-.92,1.79-1.39s1.24-.92,1.87-1.34c1.26-1.12,2.55-2.13,3.88-3.04.67-.46,1.34-.9,2.02-1.31,2.65-2.13,5.39-3.58,8.19-4.64.7-.27,1.41-.51,2.12-.73.83-.29,1.66-.56,2.49-.81.71-.29,1.42-.51,2.15-.67s1.47-.27,2.22-.34c8.76-.7,17.1-.92,25.6-4.53.65-.24,1.31-.49,1.96-.76,3.91-1.58,7.72-3.52,11.42-5.77.57-.31,1.14-.63,1.72-.95,4.35-2.45,9.35-5.42,14.08-7.47.41.34.82.65,1.24.94.16.11.33.21.49.32,2.36,1.44,3.83,1.64,5.92,2.51Z"/>
      <path class="cls-11" d="M186.41,67.12c.07.06.15.12.22.17-4.73,2.05-9.73,5.02-14.08,7.47-.58.32-1.15.64-1.72.95-3.7,2.25-7.51,4.19-11.42,5.77-.65.27-1.31.52-1.96.76-8.5,3.61-16.84,3.83-25.6,4.53-.75.07-1.49.18-2.22.34s-1.44.38-2.15.67c-.83.25-1.66.52-2.49.81-.71.22-1.42.46-2.12.73-2.8,1.06-5.54,2.51-8.19,4.64-.68.41-1.35.85-2.02,1.31-1.33.91-2.62,1.92-3.88,3.04-.63.42-1.25.87-1.87,1.34s-1.19.86-1.79,1.39c-.65.35-1.35.8-2,1.15-.43.24-.87.47-1.3.71-8.77,5.44-17.57,7.47-26.84,9.23-.64.11-1.27.21-1.9.31-.69.19-1.36.39-2.02.62v.09c-.1-.07-.2-.16-.3-.24-.16-.1-.31-.21-.45-.32-1.03-.76-1.92-1.69-3.02-2.6-.17-.13-.33-.25-.49-.37-.88-.64-1.74-1.19-2.59-1.75v-.03c.65-.22,1.32-.43,2.01-.62.63-.09,1.26-.2,1.9-.31,9.27-1.75,18.07-3.79,26.84-9.23.44-.23.87-.47,1.3-.7.65-.35,1.35-.81,2-1.16.6-.52,1.17-.92,1.79-1.39s1.24-.92,1.87-1.34c1.26-1.11,2.56-2.12,3.89-3.04.66-.46,1.33-.9,2.01-1.31,2.65-2.13,5.39-3.57,8.19-4.64.7-.26,1.41-.51,2.12-.73.83-.29,1.66-.56,2.49-.81.71-.29,1.42-.51,2.15-.67s1.47-.27,2.22-.34c8.76-.69,17.1-.92,25.6-4.52.65-.25,1.31-.5,1.96-.76,3.91-1.59,7.72-3.52,11.42-5.78.57-.31,1.14-.62,1.72-.95,4.37-2.46,9.39-5.45,14.14-7.49h.01c.85.57,1.72,1.14,2.6,1.78.17.12.33.24.5.37,1.1.9,1.99,1.84,3.02,2.6.14.11.29.22.45.32Z"/>
      <path class="cls-10" d="M177.2,60.2c.87.69,1.75,1.27,2.63,1.85-4.75,2.04-9.77,5.03-14.14,7.49-.58.33-1.15.64-1.72.95-3.7,2.26-7.51,4.19-11.42,5.78-.65.26-1.31.51-1.96.76-8.5,3.6-16.84,3.83-25.6,4.52-.75.07-1.49.18-2.22.34s-1.44.38-2.15.67c-.83.25-1.66.52-2.49.81-.71.22-1.42.47-2.12.73-2.8,1.07-5.54,2.51-8.19,4.64-.68.41-1.35.85-2.01,1.31-1.33.92-2.63,1.93-3.89,3.04-.63.42-1.25.87-1.87,1.34s-1.19.87-1.79,1.39c-.65.35-1.35.81-2,1.16-.43.23-.86.47-1.3.7-8.77,5.44-17.57,7.48-26.84,9.23-.64.11-1.27.22-1.9.31-.69.19-1.36.4-2.01.62v.03c-.89-.59-1.78-1.17-2.66-1.87-.17-.13-.33-.25-.5-.37-1.45-1.02-3.25-1.82-5.05-1.96l.25-.09c.57-.19,1.16-.37,1.76-.53.63-.1,1.26-.2,1.9-.32,9.27-1.75,18.1-3.46,26.84-9.22.43-.24.87-.47,1.3-.71.65-.35,1.07-.7,1.71-1.05.61-.53,1.46-1.02,2.08-1.49.61-.47,1.24-.92,1.87-1.34,1.26-1.12,2.55-2.13,3.88-3.05.67-.45,1.34-.89,2.02-1.31,2.64-2.12,5.39-3.57,8.19-4.63.7-.27,1.41-.51,2.11-.73.83-.29,1.67-.56,2.5-.82.7-.29,1.42-.5,2.15-.66.73-.17,1.47-.27,2.22-.34,8.76-.7,17.1-.92,25.6-4.53.65-.24,1.31-.5,1.96-.76,3.9-1.58,7.71-3.52,11.42-5.77.57-.31,1.14-.63,1.71-.95,4.58-2.58,9.16-5.43,14.16-7.5,1.93.07,3.54.89,5.06,1.97l.51.36Z"/>
      <path class="cls-10" d="M79.07,117.03l-.42,5.39c-2.33-1.03-3.84-1.15-6.35-2.69-.17-.11-.33-.21-.49-.33-.25-.17-.5-.35-.75-.53h0v-5.72c.39.32.77.61,1.16.87.16.11.33.22.49.32,2.52,1.54,4.02,1.67,6.36,2.69Z"/>
      <path class="cls-11" d="M71.06,113.15v5.71c-.24-.18-.48-.37-.72-.56-.15-.11-.3-.21-.45-.32-1.03-.77-1.92-1.7-3.02-2.61-.16-.12-.33-.24-.49-.36-.73-.53-1.45-1.01-2.17-1.49v-5.65c.85.56,1.71,1.11,2.59,1.75.16.12.32.24.49.37,1.1.91,1.99,1.84,3.02,2.6.14.11.29.22.45.32.1.08.2.17.3.24Z"/>
      <path class="cls-10" d="M64.21,107.87v5.65c-1.03-.67-2.06-1.33-3.08-2.14-.16-.12-.33-.25-.5-.37-1.33-.94-2.74-1.68-4.36-1.9l-.68-.06.41-5.38c1.8.14,3.6.94,5.05,1.96.17.12.33.24.5.37.88.7,1.77,1.28,2.66,1.87Z"/>
    </g>
    <g>
      <path class="cls-7" d="M194.71,71.24c-4.75,2.04-9.78,5.03-14.16,7.49-.57.33-1.14.64-1.72.95-3.7,2.26-7.51,4.2-11.42,5.78-.65.26-1.3.51-1.96.76-8.49,3.6-16.83,3.83-25.6,4.52-.75.07-1.49.18-2.21.34-.73.16-1.45.38-2.15.67-.84.25-1.67.52-2.5.81-.71.22-1.41.47-2.11.73-2.8,1.07-5.55,2.51-8.19,4.64-.68.41-1.36.85-2.02,1.31-1.33.92-2.63,1.93-3.88,3.04-.63.42-1.26.87-1.88,1.34s-1.18.87-1.79,1.39c-.65.35-1.34.81-1.99,1.16-.44.23-.87.47-1.3.7-8.78,5.44-17.58,7.48-26.85,9.23-.63.11-1.27.22-1.89.31-.7.19-1.37.4-2.02.62-2.34-1.02-3.84-1.15-6.36-2.69-.16-.1-.33-.21-.49-.32-.39-.26-.77-.55-1.16-.87-.1-.07-.2-.16-.3-.24-.16-.1-.31-.21-.45-.32-1.03-.76-1.92-1.69-3.02-2.6-.17-.13-.33-.25-.49-.37-.88-.64-1.74-1.19-2.59-1.75-.89-.59-1.78-1.17-2.66-1.87-.17-.13-.33-.25-.5-.37-1.45-1.02-3.25-1.82-5.05-1.96"/>
      <path class="cls-7" d="M71.06,118.86c-.24-.18-.48-.37-.72-.56-.15-.11-.3-.21-.45-.32-1.03-.77-1.92-1.7-3.02-2.61-.16-.12-.33-.24-.49-.36-.73-.53-1.45-1.01-2.17-1.49-1.03-.67-2.06-1.33-3.08-2.14-.16-.12-.33-.25-.5-.37-1.33-.94-2.74-1.68-4.36-1.9l-.68-.06.41-5.38.25-.09c.57-.19,1.16-.37,1.76-.53.63-.1,1.26-.2,1.9-.32,9.27-1.75,18.1-3.46,26.84-9.22.43-.24.87-.47,1.3-.71.65-.35,1.07-.7,1.71-1.05.61-.53,1.46-1.02,2.08-1.49.61-.47,1.24-.92,1.87-1.34,1.26-1.12,2.55-2.13,3.88-3.05.67-.45,1.34-.89,2.02-1.31,2.64-2.12,5.39-3.57,8.19-4.63.7-.27,1.41-.51,2.11-.73.83-.29,1.67-.56,2.5-.82.7-.29,1.42-.5,2.15-.66.73-.17,1.47-.27,2.22-.34,8.76-.7,17.1-.92,25.6-4.53.65-.24,1.31-.5,1.96-.76,3.9-1.58,7.71-3.52,11.42-5.77.57-.31,1.14-.63,1.71-.95,4.58-2.58,9.16-5.43,14.16-7.5,1.93.07,3.54.89,5.06,1.97l.51.36c.87.69,1.75,1.27,2.63,1.85"/>
      <path class="cls-7" d="M179.84,62.05c.85.57,1.72,1.14,2.6,1.78.17.12.33.24.5.37,1.1.9,1.99,1.84,3.02,2.6.14.11.29.22.45.32.07.06.15.12.22.17.41.34.82.65,1.24.94.16.11.33.21.49.32,2.36,1.44,3.83,1.64,5.92,2.51l.43.18-.42,5.38-.34.14c-4.86,2.06-9.35,4.84-13.81,7.36-.58.32-1.15.64-1.72.95-3.7,2.25-7.51,4.19-11.42,5.77-.65.26-1.31.52-1.96.76-8.5,3.61-16.84,3.83-25.6,4.52-.75.07-1.49.18-2.22.34-.73.17-1.45.38-2.15.67-.83.26-1.66.53-2.5.81-.7.23-1.41.47-2.11.74-2.8,1.06-5.55,2.51-8.19,4.63-.68.42-1.35.85-2.02,1.31-1.33.92-2.62,1.93-3.88,3.04-.63.43-1.25.87-1.87,1.35-.62.47-1.19.86-1.79,1.38-.65.36-1.35.81-2,1.16-.43.23-.87.47-1.3.71-8.77,5.43-17.57,7.47-26.84,9.22-.64.11-1.27.22-1.9.31-.69.19-1.37.4-2.02.63-2.33-1.03-3.84-1.15-6.35-2.69-.17-.11-.33-.21-.49-.33-.25-.17-.5-.35-.75-.53"/>
      <line class="cls-7" x1="78.65" y1="122.42" x2="79.07" y2="117.03"/>
      <path class="cls-7" d="M186.7,67.26s-.05.02-.07.03c-4.73,2.05-9.73,5.02-14.08,7.47-.58.32-1.15.64-1.72.95-3.7,2.25-7.51,4.19-11.42,5.77-.65.27-1.31.52-1.96.76-8.5,3.61-16.84,3.83-25.6,4.53-.75.07-1.49.18-2.22.34s-1.44.38-2.15.67c-.83.25-1.66.52-2.49.81-.71.22-1.42.46-2.12.73-2.8,1.06-5.54,2.51-8.19,4.64-.68.41-1.35.85-2.02,1.31-1.33.91-2.62,1.92-3.88,3.04-.63.42-1.25.87-1.87,1.34s-1.19.86-1.79,1.39c-.65.35-1.35.8-2,1.15-.43.24-.87.47-1.3.71-8.77,5.44-17.57,7.47-26.84,9.23-.64.11-1.27.21-1.9.31-.69.19-1.36.39-2.02.62v5.8h0"/>
      <path class="cls-7" d="M179.84,62.05h-.01c-4.75,2.04-9.77,5.03-14.14,7.49-.58.33-1.15.64-1.72.95-3.7,2.26-7.51,4.19-11.42,5.78-.65.26-1.31.51-1.96.76-8.5,3.6-16.84,3.83-25.6,4.52-.75.07-1.49.18-2.22.34s-1.44.38-2.15.67c-.83.25-1.66.52-2.49.81-.71.22-1.42.47-2.12.73-2.8,1.07-5.54,2.51-8.19,4.64-.68.41-1.35.85-2.01,1.31-1.33.92-2.63,1.93-3.89,3.04-.63.42-1.25.87-1.87,1.34s-1.19.87-1.79,1.39c-.65.35-1.35.81-2,1.16-.43.23-.86.47-1.3.7-8.77,5.44-17.57,7.48-26.84,9.23-.64.11-1.27.22-1.9.31-.69.19-1.36.4-2.01.62v5.68"/>
    </g>
  </g>
  <g id="Bacon_left" data-name="Bacon left">
    <g>
      <path class="cls-10" d="M172.93,43.41v5.56l-.4.17c-5.76,2.52-10.98,5.75-16.21,8.7-.67.38-1.34.75-2.01,1.12-4.32,2.62-8.8,4.93-13.43,6.87-.77.33-1.55.64-2.33.95-10.05,4.4-20.23,5.33-30.89,6.78-.91.13-1.81.3-2.68.53-.88.23-1.74.51-2.57.86-.99.33-1.99.68-2.98,1.05-.84.28-1.68.59-2.51.92-3.33,1.33-6.55,3.04-9.58,5.44-.8.48-1.58.99-2.35,1.51-1.54,1.06-3.03,2.2-4.46,3.45-.74.48-1.46.99-2.17,1.53-.71.53-1.37.98-2.06,1.57-.76.42-1.57.94-2.33,1.36-.51.27-1.02.55-1.53.83-10.22,6.31-20.79,9.13-31.97,11.7-.77.17-1.53.33-2.29.48-.83.25-1.63.52-2.41.81v-5.56c.78-.29,1.58-.55,2.41-.81.76-.14,1.52-.3,2.29-.47,11.18-2.57,21.75-5.4,31.97-11.71.51-.28,1.02-.55,1.53-.83.76-.41,1.57-.94,2.33-1.35.69-.59,1.35-1.04,2.06-1.58.71-.53,1.43-1.04,2.17-1.53,1.43-1.25,2.92-2.39,4.46-3.44.77-.53,1.55-1.03,2.35-1.51,3.03-2.4,6.25-4.12,9.58-5.44.83-.33,1.67-.64,2.51-.93.99-.36,1.99-.71,2.98-1.04.83-.36,1.69-.64,2.57-.87.87-.22,1.77-.4,2.68-.53,10.66-1.44,20.84-2.37,30.89-6.78.78-.3,1.56-.62,2.33-.94,4.63-1.95,9.11-4.26,13.43-6.88.67-.36,1.34-.74,2.01-1.11,5.12-2.9,10.99-6.38,16.61-8.88Z"/>
      <path class="cls-10" d="M172.4,43.26l.53.15c-5.62,2.5-11.49,5.98-16.61,8.88-.67.37-1.34.75-2.01,1.11-4.32,2.62-8.8,4.93-13.43,6.88-.77.32-1.55.64-2.33.94-10.05,4.41-20.23,5.34-30.89,6.78-.91.13-1.81.31-2.68.53-.88.23-1.74.51-2.57.87-.99.33-1.99.68-2.98,1.04-.84.29-1.68.6-2.51.93-3.33,1.32-6.55,3.04-9.58,5.44-.8.48-1.58.98-2.35,1.51-1.54,1.05-3.03,2.19-4.46,3.44-.74.49-1.46,1-2.17,1.53-.71.54-1.37.99-2.06,1.58-.76.41-1.57.94-2.33,1.35-.51.28-1.02.55-1.53.83-10.22,6.31-20.79,9.14-31.97,11.71-.77.17-1.53.33-2.29.47-.83.26-1.63.52-2.41.81-2.96-.86-4.81-.86-8.03-2.23-.21-.09-.42-.19-.63-.29-.41-.19-.82-.41-1.23-.63.74-.28,1.5-.53,2.29-.77.76-.15,1.53-.31,2.3-.48,11.18-2.57,21.76-5.4,31.99-11.72.5-.28,1.01-.56,1.52-.83.76-.42,1.57-.94,2.33-1.36.69-.59,1.35-1.04,2.06-1.57.72-.54,1.44-1.05,2.17-1.54,1.44-1.24,2.93-2.39,4.47-3.44.77-.53,1.55-1.03,2.35-1.52,3.03-2.4,6.25-4.12,9.58-5.44.84-.33,1.67-.64,2.52-.93.99-.37,1.98-.71,2.98-1.04.83-.36,1.69-.64,2.57-.87.87-.23,1.77-.4,2.68-.53,10.66-1.45,20.85-2.38,30.91-6.79.78-.31,1.56-.62,2.33-.95,4.63-1.95,9.11-4.25,13.43-6.88.68-.36,1.35-.74,2.02-1.12,5.12-2.89,10.99-6.38,16.62-8.88.42.24.85.47,1.28.67.21.1.42.2.63.29,3.02,1.28,4.84,1.36,7.49,2.07Z"/>
      <path class="cls-11" d="M162.39,39.88c.2.12.4.24.61.35-5.63,2.5-11.5,5.99-16.62,8.88-.67.38-1.34.76-2.02,1.12-4.32,2.63-8.8,4.93-13.43,6.88-.77.33-1.55.64-2.33.95-10.06,4.41-20.25,5.34-30.91,6.79-.91.13-1.81.3-2.68.53-.88.23-1.74.51-2.57.87-1,.33-1.99.67-2.98,1.04-.85.29-1.68.6-2.52.93-3.33,1.32-6.55,3.04-9.58,5.44-.8.49-1.58.99-2.35,1.52-1.54,1.05-3.03,2.2-4.47,3.44-.73.49-1.45,1-2.17,1.54-.71.53-1.37.98-2.06,1.57-.76.42-1.57.94-2.33,1.36-.51.27-1.02.55-1.52.83-10.23,6.32-20.81,9.15-31.99,11.72-.77.17-1.54.33-2.3.48-.79.24-1.55.49-2.29.77-.22-.12-.44-.25-.67-.38-.19-.09-.39-.19-.58-.29-1.33-.7-2.51-1.58-3.94-2.42l-.63-.33c-1.13-.58-2.23-1.07-3.32-1.57v-.07c.73-.27,1.5-.52,2.28-.76.75-.15,1.52-.31,2.29-.48,11.17-2.57,21.74-5.4,31.96-11.72.51-.28,1.01-.56,1.52-.84.76-.41,1.57-.94,2.33-1.35.69-.59,1.35-1.04,2.06-1.58s1.44-1.05,2.17-1.53c1.43-1.25,2.92-2.4,4.46-3.45.77-.53,1.55-1.04,2.35-1.52,3.03-2.4,6.25-4.12,9.57-5.45.84-.33,1.68-.64,2.52-.93.99-.36,1.98-.71,2.98-1.04.83-.36,1.68-.64,2.56-.87.88-.22,1.77-.4,2.68-.53,10.66-1.45,20.84-2.38,30.88-6.79.78-.31,1.56-.62,2.33-.95,4.63-1.95,9.11-4.26,13.43-6.88.67-.37,1.34-.74,2.01-1.12,5.11-2.89,10.96-6.38,16.57-8.88,1.16.54,2.33,1.06,3.54,1.68.21.11.42.22.64.34,1.43.84,2.61,1.72,3.93,2.42.2.1.39.19.59.28Z"/>
      <path class="cls-10" d="M16.74,91.83s-.05.02-.08.03c-1.12-.52-2.24-1.04-3.37-1.67-.21-.12-.43-.23-.65-.34-1.86-.92-4.14-1.6-6.35-1.59l.29-.11c.68-.24,1.38-.47,2.1-.69.76-.15,1.53-.31,2.3-.48,11.17-2.57,21.81-5.07,31.97-11.7.51-.28,1.01-.56,1.52-.84.76-.41,1.24-.81,2-1.22.69-.59,1.68-1.17,2.39-1.7.72-.54,1.44-1.05,2.17-1.54,1.43-1.24,2.92-2.39,4.46-3.44.77-.53,1.56-1.03,2.35-1.51,3.03-2.4,6.25-4.12,9.58-5.44.83-.33,1.67-.64,2.52-.93.99-.36,1.98-.71,2.98-1.04.83-.36,1.68-.64,2.56-.87.88-.22,1.77-.39,2.68-.53,10.66-1.44,20.85-2.37,30.9-6.78.78-.3,1.55-.62,2.32-.94,4.63-1.95,9.11-4.25,13.43-6.87.67-.37,1.34-.74,2.01-1.12,5.35-3.03,10.69-6.34,16.61-8.87,2.37-.09,4.42.61,6.39,1.59.21.11.43.22.65.33,1.08.6,2.14,1.11,3.22,1.6-5.61,2.5-11.46,5.99-16.57,8.88-.67.38-1.34.75-2.01,1.12-4.32,2.62-8.8,4.93-13.43,6.88-.77.33-1.55.64-2.33.95-10.04,4.41-20.22,5.34-30.88,6.79-.91.13-1.8.31-2.68.53-.88.23-1.73.51-2.56.87-1,.33-1.99.68-2.98,1.04-.84.29-1.68.6-2.52.93-3.32,1.33-6.54,3.05-9.57,5.45-.8.48-1.58.99-2.35,1.52-1.54,1.05-3.03,2.2-4.46,3.45-.73.48-1.46.99-2.17,1.53s-1.37.99-2.06,1.58c-.76.41-1.57.94-2.33,1.35-.51.28-1.01.56-1.52.84-10.22,6.32-20.79,9.15-31.96,11.72-.77.17-1.54.33-2.29.48-.78.24-1.55.49-2.28.76Z"/>
      <path class="cls-10" d="M35.77,100.04v5.56c-2.96-.86-4.81-.86-8.03-2.23-.21-.09-.42-.19-.63-.29-.42-.2-.84-.42-1.26-.65l.02-.04v-5.5h.01c.41.22.82.44,1.23.63.21.1.42.2.63.29,3.22,1.37,5.07,1.37,8.03,2.23Z"/>
      <path class="cls-11" d="M25.87,96.89v5.5l-.02.04c-.21-.11-.42-.24-.64-.36-.19-.1-.39-.19-.58-.29-1.33-.7-2.51-1.58-3.94-2.42-.21-.12-.42-.23-.63-.34-1.13-.58-2.24-1.08-3.33-1.58v-.03s.01-5.51.01-5.51c1.09.5,2.19.99,3.32,1.57l.63.33c1.43.84,2.61,1.72,3.94,2.42.19.1.39.2.58.29.23.13.45.26.67.38h-.01Z"/>
      <path class="cls-10" d="M16.66,91.86s.06.03.08.04v5.54c-1.16-.52-2.3-1.06-3.45-1.7-.21-.11-.43-.22-.65-.33-1.72-.86-3.51-1.5-5.52-1.59h-.83v-5.56c2.21,0,4.49.67,6.35,1.59.22.11.44.22.65.34,1.13.63,2.25,1.15,3.37,1.67Z"/>
    </g>
    <g>
      <path class="cls-7" d="M172.93,43.41c-5.62,2.5-11.49,5.98-16.61,8.88-.67.37-1.34.75-2.01,1.11-4.32,2.62-8.8,4.93-13.43,6.88-.77.32-1.55.64-2.33.94-10.05,4.41-20.23,5.34-30.89,6.78-.91.13-1.81.31-2.68.53-.88.23-1.74.51-2.57.87-.99.33-1.99.68-2.98,1.04-.84.29-1.68.6-2.51.93-3.33,1.32-6.55,3.04-9.58,5.44-.8.48-1.58.98-2.35,1.51-1.54,1.05-3.03,2.19-4.46,3.44-.74.49-1.46,1-2.17,1.53-.71.54-1.37.99-2.06,1.58-.76.41-1.57.94-2.33,1.35-.51.28-1.02.55-1.53.83-10.22,6.31-20.79,9.14-31.97,11.71-.77.17-1.53.33-2.29.47-.83.26-1.63.52-2.41.81-2.96-.86-4.81-.86-8.03-2.23-.21-.09-.42-.19-.63-.29-.41-.19-.82-.41-1.23-.63-.22-.12-.44-.25-.67-.38-.19-.09-.39-.19-.58-.29-1.33-.7-2.51-1.58-3.94-2.42l-.63-.33c-1.13-.58-2.23-1.07-3.32-1.57-.02-.01-.05-.03-.08-.04-1.12-.52-2.24-1.04-3.37-1.67-.21-.12-.43-.23-.65-.34-1.86-.92-4.14-1.6-6.35-1.59"/>
      <path class="cls-7" d="M6.29,88.26l.29-.11c.68-.24,1.38-.47,2.1-.69.76-.15,1.53-.31,2.3-.48,11.17-2.57,21.81-5.07,31.97-11.7.51-.28,1.01-.56,1.52-.84.76-.41,1.24-.81,2-1.22.69-.59,1.68-1.17,2.39-1.7.72-.54,1.44-1.05,2.17-1.54,1.43-1.24,2.92-2.39,4.46-3.44.77-.53,1.56-1.03,2.35-1.51,3.03-2.4,6.25-4.12,9.58-5.44.83-.33,1.67-.64,2.52-.93.99-.36,1.98-.71,2.98-1.04.83-.36,1.68-.64,2.56-.87.88-.22,1.77-.39,2.68-.53,10.66-1.44,20.85-2.37,30.9-6.78.78-.3,1.55-.62,2.32-.94,4.63-1.95,9.11-4.25,13.43-6.87.67-.37,1.34-.74,2.01-1.12,5.35-3.03,10.69-6.34,16.61-8.87,2.37-.09,4.42.61,6.39,1.59.21.11.43.22.65.33,1.08.6,2.14,1.11,3.22,1.6,1.16.54,2.33,1.06,3.54,1.68.21.11.42.22.64.34,1.43.84,2.61,1.72,3.93,2.42.2.1.39.19.59.28.2.12.4.24.61.35.42.24.85.47,1.28.67.21.1.42.2.63.29,3.02,1.28,4.84,1.36,7.49,2.07l.53.15v5.56l-.4.17c-5.76,2.52-10.98,5.75-16.21,8.7-.67.38-1.34.75-2.01,1.12-4.32,2.62-8.8,4.93-13.43,6.87-.77.33-1.55.64-2.33.95-10.05,4.4-20.23,5.33-30.89,6.78-.91.13-1.81.3-2.68.53-.88.23-1.74.51-2.57.86-.99.33-1.99.68-2.98,1.05-.84.28-1.68.59-2.51.92-3.33,1.33-6.55,3.04-9.58,5.44-.8.48-1.58.99-2.35,1.51-1.54,1.06-3.03,2.2-4.46,3.45-.74.48-1.46.99-2.17,1.53-.71.53-1.37.98-2.06,1.57-.76.42-1.57.94-2.33,1.36-.51.27-1.02.55-1.53.83-10.22,6.31-20.79,9.13-31.97,11.7-.77.17-1.53.33-2.29.48-.83.25-1.63.52-2.41.81-2.96-.86-4.81-.86-8.03-2.23-.21-.09-.42-.19-.63-.29-.42-.2-.84-.42-1.26-.65-.21-.11-.42-.24-.64-.36-.19-.1-.39-.19-.58-.29-1.33-.7-2.51-1.58-3.94-2.42-.21-.12-.42-.23-.63-.34-1.13-.58-2.24-1.08-3.33-1.58-1.15-.52-2.29-1.06-3.44-1.7-.21-.11-.43-.22-.65-.33-1.72-.86-3.51-1.5-5.52-1.59h-.83v-5.56Z"/>
      <line class="cls-7" x1="35.77" y1="105.6" x2="35.77" y2="100.04"/>
      <path class="cls-7" d="M163,40.23c-5.63,2.5-11.5,5.99-16.62,8.88-.67.38-1.34.76-2.02,1.12-4.32,2.63-8.8,4.93-13.43,6.88-.77.33-1.55.64-2.33.95-10.06,4.41-20.25,5.34-30.91,6.79-.91.13-1.81.3-2.68.53-.88.23-1.74.51-2.57.87-1,.33-1.99.67-2.98,1.04-.85.29-1.68.6-2.52.93-3.33,1.32-6.55,3.04-9.58,5.44-.8.49-1.58.99-2.35,1.52-1.54,1.05-3.03,2.2-4.47,3.44-.73.49-1.45,1-2.17,1.54-.71.53-1.37.98-2.06,1.57-.76.42-1.57.94-2.33,1.36-.51.27-1.02.55-1.52.83-10.23,6.32-20.81,9.15-31.99,11.72-.77.17-1.54.33-2.3.48-.79.24-1.55.49-2.29.77h-.01s-.07.03-.11.04"/>
      <path class="cls-7" d="M153.72,35.15s-.02,0-.03,0c-5.61,2.5-11.46,5.99-16.57,8.88-.67.38-1.34.75-2.01,1.12-4.32,2.62-8.8,4.93-13.43,6.88-.77.33-1.55.64-2.33.95-10.04,4.41-20.22,5.34-30.88,6.79-.91.13-1.8.31-2.68.53-.88.23-1.73.51-2.56.87-1,.33-1.99.68-2.98,1.04-.84.29-1.68.6-2.52.93-3.32,1.33-6.54,3.05-9.57,5.45-.8.48-1.58.99-2.35,1.52-1.54,1.05-3.03,2.2-4.46,3.45-.73.48-1.46.99-2.17,1.53s-1.37.99-2.06,1.58c-.76.41-1.57.94-2.33,1.35-.51.28-1.01.56-1.52.84-10.22,6.32-20.79,9.15-31.96,11.72-.77.17-1.54.33-2.29.48-.78.24-1.55.49-2.28.76-.03,0-.05.02-.08.03-.02.01-.03.01-.05.02"/>
      <line class="cls-7" x1="25.87" y1="96.89" x2="25.87" y2="102.39"/>
      <polyline class="cls-7" points="16.74 91.8 16.74 91.83 16.74 91.9 16.74 97.41"/>
    </g>
  </g>
  <path id="Bread_top" data-name="Bread top" class="cls-2" d="M.13,82.62v-32.93s87.33,21.22,87.33,21.22c5.96,2.38,12.61,2.38,18.57,0l87.33-21.29v25s-62.29,25.88-87.03,36.16c-6.03,2.51-12.8,2.55-18.86.12-21.44-8.58-70.72-28.29-70.72-28.29"/>
  <path id="Top" class="cls-8" d="M87.46,85.9L1.38,51.47c-1.68-.67-1.68-3.04,0-3.71L93.03,11.1c2.38-.95,5.04-.95,7.43,0l91.64,36.66c1.68.67,1.68,3.04,0,3.71l-86.07,34.43c-5.96,2.38-12.61,2.38-18.57,0Z"/>
  <g id="Sesame">
    <path class="cls-1" d="M68.95,53.47c-1.18,0-.38,1.27.44,1.27,1.18,0,.38-1.27-.44-1.27Z"/>
    <path class="cls-1" d="M68.95,64.5c-.73,0-1.7,1.38-.62,1.38.73,0,1.7-1.38.62-1.38Z"/>
    <path class="cls-1" d="M41.39,53.21c-1.18,0-.39,1.28.43,1.28,1.18,0,.39-1.28-.43-1.28Z"/>
    <path class="cls-1" d="M87.49,34.26c-.96,0-1.43,1.19-.24,1.19.96,0,1.43-1.19.24-1.19Z"/>
    <path class="cls-1" d="M88.43,19.9c-1.09,0-.23,1.42.52,1.42,1.09,0,.23-1.42-.52-1.42Z"/>
    <path class="cls-1" d="M67.77,35.01c-.71,0-1.58,1.53-.63,1.53.71,0,1.58-1.53.63-1.53Z"/>
    <path class="cls-1" d="M48.83,40.26c-.4,0-.95.21-1.12.61-.14.33-.05.72.39.72.4,0,.95-.21,1.12-.61.14-.33.05-.72-.39-.72Z"/>
    <path class="cls-1" d="M80.47,44.01c-.19-.41-.74-.57-1.14-.57-.43,0-.51.42-.36.73.19.41.74.57,1.14.57.43,0,.51-.42.36-.73Z"/>
    <path class="cls-1" d="M89.87,74.59c-.81,0-1.7,1.24-.52,1.24.81,0,1.7-1.24.52-1.24Z"/>
    <path class="cls-1" d="M88.42,55.34c-1.18,0-.27,1.24.54,1.24,1.18,0,.27-1.24-.54-1.24Z"/>
    <path class="cls-1" d="M100.87,74.83c-1.18,0-.41,1.28.42,1.28,1.18,0,.41-1.28-.42-1.28Z"/>
    <path class="cls-1" d="M128.69,62.04c-1.18,0-.38,1.27.44,1.27,1.18,0,.38-1.27-.44-1.27Z"/>
    <path class="cls-1" d="M107.13,67.3c-.41,0-.95.18-1.13.59-.14.32-.06.72.38.72.41,0,.95-.18,1.13-.59.14-.32.06-.72-.38-.72Z"/>
    <path class="cls-1" d="M99.06,60.8c-1.08,0-.13,1.38.61,1.38,1.08,0,.13-1.38-.61-1.38Z"/>
    <path class="cls-1" d="M123.82,63.76c-.71,0-1.59,1.53-.65,1.53.71,0,1.59-1.53.65-1.53Z"/>
    <path class="cls-1" d="M100.43,37.27s-.09-.09-.13-.13c-.05-.07-.12-.12-.2-.15-.09-.05-.18-.08-.28-.08-.12-.02-.23-.01-.34.02-.12.01-.24.05-.35.1l-.19.11c-.11.07-.2.17-.26.28-.02.05-.04.1-.05.16-.02.11,0,.21.07.3l.13.13c.05.07.12.12.2.15.09.05.18.08.28.08.12.02.23.01.34-.02.12-.01.24-.05.35-.1.06-.04.13-.07.19-.11.11-.07.2-.17.26-.28.02-.05.04-.1.05-.16.02-.11,0-.21-.07-.3Z"/>
    <path class="cls-1" d="M105.8,50.78c-1.08,0-.16,1.39.58,1.39,1.08,0,.16-1.39-.58-1.39Z"/>
    <path class="cls-1" d="M105.88,31.29c-.03-.08-.08-.14-.15-.18-.08-.06-.17-.09-.26-.11-.1-.03-.21-.04-.32-.03-.08.01-.16.02-.24.03-.15.03-.29.09-.43.18-.05.04-.1.09-.16.13-.09.08-.14.18-.17.3v.26c-.02.08,0,.16.04.23.03.08.08.14.15.18.08.06.17.09.26.11.1.03.21.04.32.03.08-.01.16-.02.24-.03.15-.03.29-.09.43-.18.05-.04.1-.09.16-.13.09-.08.14-.18.17-.3v-.26c.02-.08,0-.16-.04-.23Z"/>
    <path class="cls-1" d="M114.53,48.13c-1.09,0-.22,1.42.52,1.42,1.09,0,.22-1.42-.52-1.42Z"/>
    <path class="cls-1" d="M109.81,41.91c-1.19,0-.75,1.19.21,1.19,1.19,0,.75-1.19-.21-1.19Z"/>
    <path class="cls-1" d="M113.78,36.1c-.15-.41-.76-.53-1.13-.53-.39,0-.65.31-.52.67.15.41.76.53,1.13.53.39,0,.65-.31.52-.67Z"/>
    <path class="cls-1" d="M135.41,34.06c-1.07,0-.01,1.33.71,1.33,1.07,0,.01-1.33-.71-1.33Z"/>
    <path class="cls-1" d="M136.78,47.94c-.82,0-1.62,1.27-.44,1.27.82,0,1.62-1.27.44-1.27Z"/>
    <path class="cls-1" d="M176.84,46.1c-.71,0-1.6,1.52-.66,1.52.71,0,1.6-1.52.66-1.52Z"/>
    <path class="cls-1" d="M160.84,56.68c-1.19,0-.75,1.19.21,1.19,1.19,0,.75-1.19-.21-1.19Z"/>
    <path class="cls-1" d="M158.48,43.11c-.13-.41-.75-.56-1.12-.56-.39,0-.66.28-.54.66.13.41.75.56,1.12.56.39,0,.66-.28.54-.66Z"/>
    <path class="cls-1" d="M144.23,41.39c-.94,0-1.52,1.17-.32,1.17.94,0,1.52-1.17.32-1.17Z"/>
    <path class="cls-1" d="M148.08,56.93c-.03-.09-.08-.16-.15-.21-.08-.07-.17-.13-.27-.17-.1-.06-.22-.09-.33-.11-.08,0-.16-.01-.24-.02-.14,0-.28.02-.42.08l-.16.09c-.09.07-.15.16-.17.27v.26c-.02.08,0,.16.04.23.03.09.08.16.15.21.08.07.17.13.27.17.1.06.22.09.33.11.08,0,.16.01.24.02.14,0,.28-.02.42-.08l.16-.09c.09-.07.15-.16.17-.27v-.26c.02-.08,0-.16-.04-.23Z"/>
    <path class="cls-1" d="M146.98,47.29c-1.18,0-.3,1.25.51,1.25,1.18,0,.3-1.25-.51-1.25Z"/>
    <path class="cls-1" d="M167.92,51.12c-1.18,0-.25,1.23.56,1.23,1.18,0,.25-1.23-.56-1.23Z"/>
    <path class="cls-1" d="M127.79,49.87c-.73,0-1.75,1.35-.68,1.35.73,0,1.75-1.35.68-1.35Z"/>
    <path class="cls-1" d="M42.57,49.29c-1.18,0-.77,1.19.19,1.19,1.18,0,.77-1.19-.19-1.19Z"/>
    <path class="cls-1" d="M27.34,49.45c-.02-.08-.07-.14-.14-.18-.08-.05-.16-.07-.24-.07-.1-.02-.2,0-.29.02-.07.03-.14.05-.21.08-.15.07-.28.16-.39.27-.05.06-.1.11-.14.17-.08.11-.13.22-.15.35v.13c-.02.09,0,.16.03.24.02.08.07.14.14.18.08.05.16.07.24.07.1.02.2,0,.29-.02l.21-.08c.15-.07.28-.16.39-.27.05-.06.1-.11.14-.17.08-.11.13-.22.15-.35v-.13c.02-.09,0-.16-.03-.24Z"/>
    <path class="cls-1" d="M24.67,43.78c-.35,0-.78.25-.69.65.09.43.73.5,1.06.5.35,0,.78-.25.69-.65-.09-.43-.73-.5-1.06-.5Z"/>
    <path class="cls-1" d="M29.66,54.21c-.73,0-1.71,1.37-.63,1.37.73,0,1.71-1.37.63-1.37Z"/>
    <path class="cls-1" d="M55.57,63.42c-1.11,0-1.08,1.15.03,1.15s1.08-1.15-.03-1.15Z"/>
    <path class="cls-1" d="M53.78,53.25c-.4,0-.95.2-1.12.61-.14.33-.05.72.39.72.4,0,.95-.2,1.12-.61.14-.33.05-.72-.39-.72Z"/>
    <path class="cls-1" d="M66.56,41.25c-1.19,0-.76,1.19.2,1.19,1.18,0,.76-1.19-.2-1.19Z"/>
    <path class="cls-1" d="M75.06,50.94c-.96,0-1.36,1.2-.18,1.2.96,0,1.36-1.2.18-1.2Z"/>
    <path class="cls-1" d="M80.07,60.12c-1.09,0-.25,1.43.49,1.43,1.09,0,.25-1.43-.49-1.43Z"/>
    <path class="cls-1" d="M104.19,18.31c-.95,0-1.49,1.17-.29,1.17.95,0,1.49-1.17.29-1.17Z"/>
    <path class="cls-1" d="M62.57,46.2c-1.19,0-.69,1.18.27,1.18,1.19,0,.69-1.18-.27-1.18Z"/>
    <path class="cls-1" d="M85.35,47.38c-1.19,0-.75,1.19.21,1.19,1.19,0,.75-1.19-.21-1.19Z"/>
    <path class="cls-1" d="M99.1,82.61c-1.1,0-1.11,1.15,0,1.15s1.11-1.15,0-1.15Z"/>
    <path class="cls-1" d="M128.1,24.22c-1.18,0-.25,1.23.55,1.23,1.18,0,.25-1.23-.55-1.23Z"/>
    <path class="cls-1" d="M49.94,32.97c-.95,0-.1,1.54.62,1.54.95,0,.1-1.54-.62-1.54Z"/>
    <path class="cls-1" d="M68.23,23.47c-1.11,0-1.08,1.15.02,1.15s1.08-1.15-.02-1.15Z"/>
  </g>
</svg>